<?xml version="1.0" encoding="UTF-8"?><svg xmlns="http://www.w3.org/2000/svg" viewBox="0 0 401.6 141.46"><defs><style>.d{fill:#fff;}</style></defs><g id="a"/><g id="b"><g id="c"><path class="d" d="M183.04,58.1c.5-.7,1.02-1.39,1.51-2.1,4.1-6,8.36-11.85,14.46-16.04,3.53-2.43,7.32-3.85,11.7-2.92,4.48,.95,6.7,4.16,5.97,8.77-.99,6.23-2.24,12.42-2.98,18.67-.48,4.08-.46,8.25-.26,12.36,.07,1.32,1.18,3.18,2.31,3.68,.93,.41,2.89-.49,3.87-1.38,4.99-4.5,7.35-10.6,9.5-16.73,1.54-4.38,2.66-8.9,4.05-13.33,1.89-6,4.99-11.29,10.05-15.14,4.55-3.46,9.66-4.55,14.92-1.68,4.76,2.6,7.29,9.1,6.53,14.89-1.67,12.63-8.52,20.8-20.73,24.4-1.53,.45-1.95,1.28-1.51,2.52,.78,2.17,1.49,4.46,2.74,6.36,2.26,3.43,5.86,4.24,10.17,2.71,5.69-2.01,9.65-6.04,12.87-10.97,3.41-5.22,5.31-11.06,6.93-17,1.85-6.78,4.08-13.38,9.03-18.64,3.7-3.94,8.06-6.45,13.69-5.58,5.67,.87,9.89,5.5,10.53,11.35,1.42,12.94-6.61,24.97-19.29,28.9-3.49,1.08-3.5,1.08-2.33,4.66,.31,.94,.66,1.88,1.1,2.77,2.34,4.7,6.2,6.3,11.18,4.59,5.17-1.78,9.05-5.24,12.07-9.67,5.07-7.42,7.7-15.76,9.04-24.56,.79-5.16,1.49-10.34,2.34-15.49,.34-2.07,.23-3.3-2.43-3.26-2.62,.04-4.73-2.22-4.94-4.7-.26-3,1.32-5.27,4.12-5.93,.57-.13,1.13-.3,1.71-.38q3.92-.56,4.59-4.51c.35-2.04,.61-4.1,1.04-6.13,.68-3.22,3.45-5.21,6.26-4.63,3.5,.72,5.18,3.18,4.62,6.69-.43,2.69-.83,5.38-1.29,8.38,1.05,.05,1.85,.05,2.64,.13,3.05,.28,5.56,2.94,5.47,5.77-.1,3-2.54,5.29-5.74,5.4-4.06,.14-4.15,.12-4.87,4.46-2.07,12.53-4.21,25.08-3.81,37.85,.08,2.46,.48,4.98,1.2,7.33,1.1,3.62,3.9,4.67,6.68,2.09,3.17-2.95,6.3-6.33,8.24-10.13,2.81-5.5,4.63-11.52,6.69-17.38,1.21-3.44,3.05-5.12,6.21-5,2.82,.11,4.99,2.3,5.04,5.12,.01,.58,.03,1.19-.12,1.74-2.84,10.38-6.15,20.58-13.11,29.08-3.65,4.45-7.91,8.05-13.96,8.85-6.37,.84-12.93-2.78-15.56-8.77-.53-1.2-.97-2.43-1.64-4.13-.92,1.02-1.6,1.77-2.28,2.53-4.82,5.4-10.42,9.5-17.75,10.85-8.19,1.51-16.72-2.34-20.85-9.54-.78-1.36-1.46-2.79-2.37-4.54-.69,.75-1.3,1.34-1.83,2-3.97,4.85-8.67,8.69-14.59,10.99-9.86,3.84-20.63-.08-25.61-9.41-.46-.87-.91-1.75-1.55-2.97-.93,1.14-1.69,2.07-2.45,3-2.56,3.18-5.65,5.59-9.54,6.98-7.78,2.77-15.32-1.21-17.56-9.14-1.83-6.47-1.59-12.98-.74-19.52,.51-3.93,1.19-7.83,1.93-12.59-1.14,1.06-1.77,1.6-2.34,2.2-7.27,7.62-12.19,16.8-17.19,25.92-1.2,2.19-2.25,4.46-3.36,6.69-1.28,2.57-3.4,3.96-5.65,3.69-2.78-.33-4.93-2-5.08-4.96-.34-6.45-.26-12.93-.3-19.4,0-1.36,.19-2.71,.29-4.07l-.59-.2c-.56,.76-1.18,1.49-1.68,2.28-5.67,8.97-8.64,19.01-11.49,29.08-1,3.52-3.13,5.2-6.66,4.89-2.74-.24-4.86-2.67-5.06-5.89-.08-1.31-.01-2.63-.01-4.46-2.26,2.07-4.03,3.89-6,5.45-3.63,2.89-7.75,3.96-12.39,2.97-3.59-.77-6.13-2.86-7.92-5.94-.82-1.42-1.45-2.94-2.37-4.82-.73,.91-1.21,1.62-1.8,2.23-2.8,2.83-5.3,6.08-8.51,8.33-6.07,4.26-13.14,2.08-16.61-4.51-2.18-4.14-3.36-8.61-3.31-13.17,.07-7.21,.6-14.42,1.25-21.6,.4-4.36,1.42-8.67,2.13-13.01,.5-3.04,2.94-5.1,5.91-4.93,3.16,.18,5.57,2.53,5.22,5.74-.5,4.6-1.52,9.15-2.21,13.74-1.2,7.99-2.02,16-.28,24.03,.07,.32,.05,.71,.22,.96,.59,.83,1.13,2.03,1.94,2.29,.59,.19,1.85-.7,2.35-1.42,1.88-2.73,3.77-5.5,5.31-8.43,4.34-8.26,7.72-16.91,10.09-25.95,1.1-4.2,3.62-6.04,7.05-5.26,2.96,.67,4.67,3,4.21,6.06-.72,4.75-1.94,9.46-2.27,14.24-.36,5.26,0,10.58,.14,15.87,.02,.79,.4,1.61,.75,2.35,1.05,2.2,2.68,2.76,4.31,.96,2.48-2.74,4.95-5.67,6.61-8.94,4.12-8.09,7.45-16.5,7.69-25.79,.04-1.57,.27-3.14,.5-4.7,.46-3,3.1-4.89,6.37-4.62,3,.25,4.97,2.34,4.81,5.54-.2,4.06-.66,8.11-.98,12.16-.04,.54,.04,1.09,.1,2.3,1.22-1.76,2.05-3.05,2.97-4.27,3.54-4.72,7.36-9.17,13.55-10.31,1.72-.32,3.69-.17,5.36,.35,3.5,1.08,5.02,4.05,4.33,7.66-.41,2.16-.82,4.32-1.24,6.49l.56,.25Zm59.15,2.02c7.18-1.9,11.38-9.26,11.61-13.73,.05-.94-.44-2.35-1.14-2.76-.81-.47-2.17-.23-3.22,0-.65,.15-1.26,.79-1.75,1.34-3.76,4.23-4.6,9.51-5.51,15.14Zm43.89-.03c5.79-1.49,11.35-8.02,11.51-13.4,.03-1.08-.49-2.78-1.25-3.13-.95-.44-2.52-.02-3.62,.48-.9,.41-1.62,1.4-2.23,2.27-2.85,4.04-3.72,8.72-4.41,13.78Z"/><path class="d" d="M385.59,79.1c3.43-4.85,6.87-9.68,10.31-14.52,.69-.97,.57-2.02-.22-2.64-.73-.58-1.99-.25-2.56,.61-1.44,2.19-2.94,4.35-4.48,6.48-1.1,1.52-2.32,2.96-3.47,4.47-.96,1.28-1.93,2.56-2.82,3.89-.69,1.05-1.78,.93-2.48,.41-.84-.62-.96-1.45-.24-2.43,1.83-2.5,3.62-5.02,5.42-7.54l5.76-7.5c.54-.77,.44-1.5-.21-2.02-.75-.62-1.63-.57-2.26,.12-.66,.71-1.34,1.4-1.96,2.15-2.57,3.14-5.14,6.29-7.68,9.45-1.75,2.17-3.46,4.36-5.19,6.55-1.32,1.68-2.24,3.85-2.24,3.85-.43,1.68,.22,3.21,.82,4.74,.42,1.06,.57,2.11,.32,3.11-.24,.95-.77,1.57-.86,1.69-.07,.09-.75,1.03-1.95,2.69,1.84,1.49,3.7,2.94,5.59,4.36l1.86-2.6c.58-.85,1.31-1.58,2.22-2.05,.69-.37,1.53-.64,2.32-.46,3.14,.21,5.68-.66,7.32-3.62,1.61-2.91,3.41-5.73,5.14-8.59,1.41-2.31,2.86-4.6,4.28-6.92,1-1.63,2.01-3.26,3-4.89,.07-.12,.13-.26,.18-.39,.33-.85-.29-1.87-1.13-2.11-.78-.22-1.27,.06-1.67,.67-1.34,2.05-2.67,4.11-4.04,6.16-1.13,1.69-2.3,3.36-3.45,5.03-1.06,1.53-2.11,3.08-3.22,4.57-.75,1.01-2,.75-2.65-.33-.57-.94-.25-1.69,.25-2.4Z"/><path class="d" d="M76.86,110.07c.08-.36,.38-.71,.69-.9,.14-.08,.28-.13,.42-.15-.26-3.67-.15-7.39-.12-11.06,0-.02-.02-.04-.01-.06l.31-20.16c.46-10.29,.98-20.59,1.38-30.89,.12-3.06-2.03-5.45-4.77-5.69-3.21-.27-5.92,1.76-6.55,4.82-.95,4.63-1.66,9.33-3,13.84-2.55,8.55-5.72,16.87-11.74,23.72-.64,.73-1.75,1.41-2.64,1.4-.5-.01-1.31-1.44-1.4-2.29-.51-4.78-1.48-9.63-1.09-14.35,.68-8.24,2.2-16.42,3.45-24.61,.46-3.08-1.31-5.98-4.26-6.58-3.35-.69-6.04,.95-6.76,4.22-.64,2.91-1.2,5.85-1.73,8.79-1.87,10.26-3.04,20.57-1.25,30.95,.57,3.31,1.6,6.63,3.01,9.67,2.29,4.96,6.88,7.04,12.12,6.05,4.66-.87,7.67-4.1,10.57-7.48,.81-.95,1.58-1.93,2.38-2.9,.19,.1,.39,.21,.59,.31-.17,3.39-.54,6.78-.44,10.15,.08,2.77-1.24,3.76-3.6,4.7-10.23,4.06-16.94,11.39-18.9,22.35-1.51,8.47,4.49,16.79,12.11,17.47,5.92,.52,10.58-1.81,14.18-6.24,5.15-6.33,6.05-14.06,6.61-21.81,.1-1.46,.15-2.34,.39-2.9,0-.12,.02-.25,.04-.37Zm-16.57,18.61c-.81,.88-3.15,1.63-3.76,1.15-1.09-.86-2.16-2.89-1.86-4.1,.66-2.73,1.78-5.55,3.44-7.8,1.59-2.15,4.1-3.64,6.2-5.43,.24,.2,.48,.39,.71,.59-.35,5.55-.65,11.17-4.73,15.59Z"/><path class="d" d="M18.3,25.51c-1.39-.47-2.61-.77-3.73-1.28-3.17-1.46-6.31-2.99-9.44-4.55-.74-.37-1.46-.84-2.05-1.41-1.55-1.47-2.05-3.23-.93-5.17,1.16-2,3.35-2.15,4.81-1.16,4.32,2.91,8.42,6.17,12.46,9.46,.65,.53,.81,1.95,.74,2.93-.03,.43-1.21,.78-1.87,1.17Z"/><path class="d" d="M380.76,24.79c-1.26-.66-2.2-.85-2.41-1.34-.23-.54,.01-1.51,.4-2.04,.67-.92,1.51-1.78,2.45-2.43,2.51-1.76,5.09-3.43,7.69-5.05,.75-.46,1.75-1.01,2.5-.86,1.23,.25,2.93,.77,3.37,1.69,.45,.93,.03,3.23-.72,3.63-4.39,2.38-8.98,4.38-13.28,6.41Z"/><path class="d" d="M21.97,0c.57,.29,1.88,.56,2.54,1.36,2.41,2.94,4.67,6.02,6.83,9.16,.42,.61,.14,1.69,.19,2.55-.86-.03-2.01,.28-2.55-.16-3.14-2.56-6.39-5.08-9.1-8.05-1.93-2.11-.81-4.81,2.09-4.86Z"/><path class="d" d="M368.77,13.11c-.03-.56-.21-1.04-.06-1.36,1.9-3.95,4.55-7.3,8.36-9.56,.62-.37,2.03-.34,2.44,.1,.56,.61,.84,1.83,.68,2.69-.48,2.58-8.41,8.23-11.42,8.13Z"/><path class="d" d="M15.87,37.52c-1.45,.56-2.26,1.14-3.08,1.13-3.14-.04-6.28-.21-9.41-.47-.77-.06-1.57-.55-2.22-1.02-1.75-1.28-1.5-2.95,.53-3.72,.68-.25,1.51-.48,2.17-.32,3.28,.8,6.55,1.68,9.78,2.65,.64,.19,1.13,.86,2.23,1.74Z"/><path class="d" d="M381.66,35.43c.97-.78,1.42-1.41,1.97-1.53,3.13-.67,6.28-1.37,9.46-1.71,.81-.08,1.76,1.13,2.65,1.75-.62,.7-1.12,1.78-1.89,2.04-3.93,1.31-7.82,1.05-12.18-.56Z"/><path d="M77.09,110.7c7.72,0,7.73-12,0-12s-7.73,12,0,12h0Z"/><path class="d" d="M77.54,110.52c10.55-2.1,21.36-.86,31.88,.9s21.14,4.09,31.63,6.49c20.4,4.66,40.75,9.28,61.51,12.09,38.87,5.26,78.79,5.34,117.13-3.74,10.98-2.6,21.78-5.96,32.26-10.15,9.24-3.69,17.71-7.87,23.73-16.07,4.57-6.23-5.84-12.23-10.36-6.06-4.93,6.73-14.06,9.7-21.56,12.48-8.9,3.3-18.01,6.04-27.25,8.22-18.89,4.46-38.22,6.57-57.61,6.89-39.74,.66-78-6.92-116.55-15.68-21.85-4.96-45.55-11.41-67.98-6.95-7.57,1.5-4.36,13.07,3.19,11.57h0Z"/></g></g></svg>